<svg width="1440" height="2326" viewBox="0 0 1440 2326" fill="none" xmlns="http://www.w3.org/2000/svg">
<g filter="url(#filter0_bd_194_106)">
<mask id="path-1-inside-1_194_106" fill="white">
<path fill-rule="evenodd" clip-rule="evenodd" d="M1443.11 0.109063L-3.00097 5.17674L-0.125011 825.862L610.788 823.721C593.859 842.799 583.615 867.934 583.711 895.447C583.919 954.837 535.943 1003.15 476.553 1003.36L358.074 1003.77C233.25 1004.21 132.414 1105.76 132.852 1230.58L134.041 1569.99L135.192 1898.39C135.651 2029.3 242.147 2135.05 373.058 2134.59C503.969 2134.13 609.721 2027.63 609.262 1896.72L608.031 1545.31C607.994 1534.79 608.759 1524.45 610.269 1514.36C644.288 1549.68 665.476 1597.4 666.492 1650.02L678.888 2292.07C681.701 2437.73 793.08 2558.15 938.063 2572.29L1123.89 2568.58C1160.43 2567.85 1196.8 2573.63 1231.3 2585.65L1248.21 2591.55C1347.19 2626.05 1421.77 2708.58 1446.09 2810.55L1484.65 2972.16L1478.49 2653.18L1476.14 2531.65L1453.42 1354.68C1450.23 1189.42 1317.07 1056.28 1151.81 1053.12L1082.03 1051.79C1109.08 1032.92 1141.93 1021.84 1177.27 1021.72L1226.91 1021.54C1341.62 1021.14 1435.49 932.936 1445.11 820.797L1445.99 820.794L1443.11 0.109063Z"/>
</mask>
<path fill-rule="evenodd" clip-rule="evenodd" d="M1443.11 0.109063L-3.00097 5.17674L-0.125011 825.862L610.788 823.721C593.859 842.799 583.615 867.934 583.711 895.447C583.919 954.837 535.943 1003.15 476.553 1003.36L358.074 1003.77C233.25 1004.21 132.414 1105.76 132.852 1230.58L134.041 1569.99L135.192 1898.39C135.651 2029.3 242.147 2135.05 373.058 2134.59C503.969 2134.13 609.721 2027.63 609.262 1896.72L608.031 1545.31C607.994 1534.79 608.759 1524.45 610.269 1514.36C644.288 1549.68 665.476 1597.4 666.492 1650.02L678.888 2292.07C681.701 2437.73 793.08 2558.15 938.063 2572.29L1123.89 2568.58C1160.43 2567.85 1196.8 2573.63 1231.3 2585.65L1248.21 2591.55C1347.19 2626.05 1421.77 2708.58 1446.09 2810.55L1484.65 2972.16L1478.49 2653.18L1476.14 2531.65L1453.42 1354.68C1450.23 1189.42 1317.07 1056.28 1151.81 1053.12L1082.03 1051.79C1109.08 1032.92 1141.93 1021.84 1177.27 1021.72L1226.91 1021.54C1341.62 1021.14 1435.49 932.936 1445.11 820.797L1445.99 820.794L1443.11 0.109063Z" fill="url(#paint0_linear_194_106)"/>
<path d="M1474.75 2961.21L1486.93 2968.15L1482.37 2976.17L1470.18 2969.24L1474.75 2961.21ZM-3.00097 5.17674L-12.2336 5.20909L-12.2659 -4.02362L-3.03333 -4.05597L-3.00097 5.17674ZM1443.11 0.109063L1443.08 -9.12365L1452.31 -9.156L1452.34 0.0767086L1443.11 0.109063ZM-0.125011 825.862L-0.0926565 835.095L-9.32527 835.127L-9.35762 825.894L-0.125011 825.862ZM610.788 823.721L610.756 814.489L631.39 814.416L617.694 829.849L610.788 823.721ZM476.553 1003.36L476.585 1012.59L476.553 1003.36ZM358.074 1003.77L358.106 1013.01L358.074 1003.77ZM132.852 1230.58L142.084 1230.55L132.852 1230.58ZM134.041 1569.99L124.808 1570.03L134.041 1569.99ZM135.192 1898.39L144.425 1898.35L135.192 1898.39ZM373.058 2134.59L373.025 2125.36L373.025 2125.36L373.058 2134.59ZM609.262 1896.72L600.03 1896.76L609.262 1896.72ZM608.031 1545.31L617.264 1545.28L608.031 1545.31ZM610.269 1514.36L601.138 1512.99L603.911 1494.45L616.919 1507.95L610.269 1514.36ZM666.492 1650.02L675.723 1649.84L666.492 1650.02ZM678.888 2292.07L669.657 2292.25L678.888 2292.07ZM938.063 2572.29L938.248 2581.52L937.706 2581.53L937.167 2581.48L938.063 2572.29ZM1123.89 2568.58L1124.08 2577.81L1123.89 2568.58ZM1231.3 2585.65L1234.34 2576.94L1234.34 2576.94L1231.3 2585.65ZM1248.21 2591.55L1245.17 2600.26L1245.17 2600.26L1248.21 2591.55ZM1446.09 2810.55L1455.08 2808.41L1446.09 2810.55ZM1484.65 2972.16L1493.88 2971.98L1475.67 2974.3L1484.65 2972.16ZM1478.49 2653.18L1469.26 2653.36L1478.49 2653.18ZM1476.14 2531.65L1485.38 2531.47L1476.14 2531.65ZM1453.42 1354.68L1444.19 1354.86L1453.42 1354.68ZM1151.81 1053.12L1151.63 1062.36L1151.81 1053.12ZM1082.03 1051.79L1081.86 1061.02L1053.44 1060.48L1076.75 1044.22L1082.03 1051.79ZM1177.27 1021.72L1177.24 1012.48L1177.27 1021.72ZM1226.91 1021.54L1226.94 1030.78L1226.94 1030.78L1226.91 1021.54ZM1445.11 820.797L1435.91 820.009L1436.63 811.594L1445.08 811.565L1445.11 820.797ZM1445.99 820.794L1455.22 820.762L1455.25 829.995L1446.02 830.027L1445.99 820.794ZM-3.03333 -4.05597L1443.08 -9.12365L1443.14 9.34177L-2.96862 14.4095L-3.03333 -4.05597ZM-9.35762 825.894L-12.2336 5.20909L6.23176 5.14439L9.10772 825.83L-9.35762 825.894ZM610.821 832.954L-0.0926565 835.095L-0.157366 816.629L610.756 814.489L610.821 832.954ZM574.478 895.48C574.374 865.611 585.505 838.302 603.883 817.593L617.694 829.849C602.213 847.295 592.856 870.258 592.944 895.415L574.478 895.48ZM476.52 994.127C530.811 993.936 574.669 949.771 574.478 895.48L592.944 895.415C593.17 959.904 541.074 1012.37 476.585 1012.59L476.52 994.127ZM358.042 994.542L476.52 994.127L476.585 1012.59L358.106 1013.01L358.042 994.542ZM123.619 1230.61C123.164 1100.69 228.118 994.997 358.042 994.542L358.106 1013.01C238.381 1013.43 141.665 1110.82 142.084 1230.55L123.619 1230.61ZM124.808 1570.03L123.619 1230.61L142.084 1230.55L143.274 1569.96L124.808 1570.03ZM125.959 1898.42L124.808 1570.03L143.274 1569.96L144.425 1898.35L125.959 1898.42ZM373.09 2143.82C237.08 2144.3 126.436 2034.43 125.959 1898.42L144.425 1898.35C144.865 2024.16 247.214 2125.8 373.025 2125.36L373.09 2143.82ZM618.495 1896.69C618.972 2032.7 509.1 2143.35 373.09 2143.82L373.025 2125.36C498.837 2124.92 600.471 2022.57 600.03 1896.76L618.495 1896.69ZM617.264 1545.28L618.495 1896.69L600.03 1896.76L598.798 1545.34L617.264 1545.28ZM619.4 1515.72C617.959 1525.36 617.228 1535.23 617.264 1545.28L598.798 1545.34C598.76 1534.35 599.559 1523.55 601.138 1512.99L619.4 1515.72ZM616.919 1507.95C652.493 1544.89 674.66 1594.81 675.723 1649.84L657.261 1650.2C656.291 1599.99 636.084 1554.47 603.619 1520.76L616.919 1507.95ZM675.723 1649.84L688.119 2291.89L669.657 2292.25L657.261 1650.2L675.723 1649.84ZM688.119 2291.89C690.841 2432.87 798.638 2549.42 938.959 2563.1L937.167 2581.48C787.521 2566.89 672.56 2442.59 669.657 2292.25L688.119 2291.89ZM937.879 2563.06L1123.71 2559.35L1124.08 2577.81L938.248 2581.52L937.879 2563.06ZM1123.71 2559.35C1161.34 2558.59 1198.8 2564.55 1234.34 2576.94L1228.26 2594.37C1194.8 2582.71 1159.52 2577.1 1124.08 2577.81L1123.71 2559.35ZM1234.34 2576.94L1251.25 2582.83L1245.17 2600.26L1228.26 2594.37L1234.34 2576.94ZM1251.25 2582.83C1353.2 2618.37 1430.02 2703.38 1455.08 2808.41L1437.11 2812.7C1413.52 2713.79 1341.18 2633.73 1245.17 2600.26L1251.25 2582.83ZM1455.08 2808.41L1493.63 2970.02L1475.67 2974.3L1437.11 2812.7L1455.08 2808.41ZM1475.42 2972.34L1469.26 2653.36L1487.72 2653L1493.88 2971.98L1475.42 2972.34ZM1469.26 2653.36L1466.91 2531.83L1485.38 2531.47L1487.72 2653L1469.26 2653.36ZM1466.91 2531.83L1444.19 1354.86L1462.65 1354.5L1485.38 2531.47L1466.91 2531.83ZM1444.19 1354.86C1441.09 1194.56 1311.93 1065.42 1151.63 1062.36L1151.99 1043.89C1322.2 1047.14 1459.36 1184.28 1462.65 1354.5L1444.19 1354.86ZM1151.63 1062.36L1081.86 1061.02L1082.21 1042.56L1151.99 1043.89L1151.63 1062.36ZM1177.3 1030.95C1143.9 1031.07 1112.87 1041.53 1087.32 1059.36L1076.75 1044.22C1105.29 1024.31 1139.96 1012.62 1177.24 1012.48L1177.3 1030.95ZM1226.94 1030.78L1177.3 1030.95L1177.24 1012.48L1226.88 1012.31L1226.94 1030.78ZM1454.31 821.586C1444.29 938.445 1346.47 1030.36 1226.94 1030.78L1226.88 1012.31C1336.76 1011.93 1426.7 927.426 1435.91 820.009L1454.31 821.586ZM1446.02 830.027L1445.14 830.03L1445.08 811.565L1445.96 811.562L1446.02 830.027ZM1452.34 0.0767086L1455.22 820.762L1436.76 820.827L1433.88 0.141418L1452.34 0.0767086Z" fill="url(#paint1_linear_194_106)" fill-opacity="0.6" mask="url(#path-1-inside-1_194_106)"/>
</g>
<defs>
<filter id="filter0_bd_194_106" x="-88.1476" y="-85.0375" width="1657.94" height="3142.35" filterUnits="userSpaceOnUse" color-interpolation-filters="sRGB">
<feFlood flood-opacity="0" result="BackgroundImageFix"/>
<feGaussianBlur in="BackgroundImageFix" stdDeviation="42.5733"/>
<feComposite in2="SourceAlpha" operator="in" result="effect1_backgroundBlur_194_106"/>
<feColorMatrix in="SourceAlpha" type="matrix" values="0 0 0 0 0 0 0 0 0 0 0 0 0 0 0 0 0 0 127 0" result="hardAlpha"/>
<feOffset dy="4.10345"/>
<feGaussianBlur stdDeviation="2.05173"/>
<feComposite in2="hardAlpha" operator="out"/>
<feColorMatrix type="matrix" values="0 0 0 0 0 0 0 0 0 0 0 0 0 0 0 0 0 0 0.25 0"/>
<feBlend mode="normal" in2="effect1_backgroundBlur_194_106" result="effect2_dropShadow_194_106"/>
<feBlend mode="normal" in="SourceGraphic" in2="effect2_dropShadow_194_106" result="shape"/>
</filter>
<linearGradient id="paint0_linear_194_106" x1="235.506" y1="4.3409" x2="2280.15" y2="3194.93" gradientUnits="userSpaceOnUse">
<stop stop-color="#6C3077"/>
<stop stop-color="#6C3077"/>
<stop offset="0.479167" stop-color="#D3348D"/>
<stop offset="1" stop-color="#FF5C00"/>
</linearGradient>
<linearGradient id="paint1_linear_194_106" x1="452.293" y1="2228.39" x2="643.109" y2="1409.28" gradientUnits="userSpaceOnUse">
<stop stop-color="#D7BFFF"/>
<stop offset="1" stop-color="#FF6099" stop-opacity="0"/>
</linearGradient>
</defs>
</svg>
