<svg width="192" height="53" viewBox="0 0 192 53" fill="none" xmlns="http://www.w3.org/2000/svg">
<rect width="192" height="53" rx="10" fill="url(#paint0_linear_602_7)"/>
<path d="M53.79 34.3C52.8233 34.3 51.9333 34.1333 51.12 33.8C50.3067 33.46 49.6 32.9667 49 32.32C48.4 31.6733 47.9333 30.8867 47.6 29.96C47.2667 29.0333 47.1 27.98 47.1 26.8C47.1 25.2467 47.3833 23.9133 47.95 22.8C48.5167 21.68 49.3033 20.82 50.31 20.22C51.3167 19.6133 52.4767 19.31 53.79 19.31C55.4833 19.31 56.8333 19.7033 57.84 20.49C58.8533 21.2767 59.5433 22.3633 59.91 23.75L57.79 24.13C57.4967 23.27 57.0233 22.5833 56.37 22.07C55.7167 21.5567 54.8967 21.2967 53.91 21.29C52.89 21.2833 52.04 21.51 51.36 21.97C50.6867 22.43 50.18 23.0767 49.84 23.91C49.5 24.7367 49.3267 25.7 49.32 26.8C49.3133 27.9 49.48 28.8633 49.82 29.69C50.16 30.51 50.67 31.15 51.35 31.61C52.0367 32.07 52.89 32.3033 53.91 32.31C54.73 32.3233 55.4333 32.1733 56.02 31.86C56.6133 31.54 57.0833 31.0733 57.43 30.46C57.7767 29.8467 58 29.0933 58.1 28.2H55.3V26.52H60.32C60.3333 26.64 60.3433 26.8 60.35 27C60.3567 27.1933 60.36 27.3167 60.36 27.37C60.36 28.7033 60.1033 29.8933 59.59 30.94C59.0767 31.9867 58.33 32.81 57.35 33.41C56.37 34.0033 55.1833 34.3 53.79 34.3ZM67.1431 34.3C66.0698 34.3 65.1265 34.0667 64.3131 33.6C63.5065 33.1267 62.8765 32.47 62.4231 31.63C61.9765 30.7833 61.7531 29.8033 61.7531 28.69C61.7531 27.51 61.9731 26.4867 62.4131 25.62C62.8598 24.7533 63.4798 24.0833 64.2731 23.61C65.0665 23.1367 65.9898 22.9 67.0431 22.9C68.1431 22.9 69.0798 23.1567 69.8531 23.67C70.6265 24.1767 71.2031 24.9 71.5831 25.84C71.9698 26.78 72.1231 27.8967 72.0431 29.19H69.9531V28.43C69.9398 27.1767 69.6998 26.25 69.2331 25.65C68.7731 25.05 68.0698 24.75 67.1231 24.75C66.0765 24.75 65.2898 25.08 64.7631 25.74C64.2365 26.4 63.9731 27.3533 63.9731 28.6C63.9731 29.7867 64.2365 30.7067 64.7631 31.36C65.2898 32.0067 66.0498 32.33 67.0431 32.33C67.6965 32.33 68.2598 32.1833 68.7331 31.89C69.2131 31.59 69.5865 31.1633 69.8531 30.61L71.9031 31.26C71.4831 32.2267 70.8465 32.9767 69.9931 33.51C69.1398 34.0367 68.1898 34.3 67.1431 34.3ZM63.2931 29.19V27.56H71.0031V29.19H63.2931ZM80.4667 34C79.7867 34.1333 79.1201 34.19 78.4667 34.17C77.8134 34.15 77.2301 34.0233 76.7167 33.79C76.2034 33.5567 75.8167 33.19 75.5567 32.69C75.3234 32.2433 75.1967 31.79 75.1767 31.33C75.1634 30.8633 75.1567 30.3367 75.1567 29.75V20.2H77.2567V29.65C77.2567 30.0833 77.2601 30.46 77.2667 30.78C77.2801 31.1 77.3501 31.37 77.4767 31.59C77.7167 32.0033 78.0967 32.24 78.6167 32.3C79.1434 32.3533 79.7601 32.33 80.4667 32.23V34ZM73.0867 24.88V23.2H80.4667V24.88H73.0867ZM90.3377 34V21.57H85.5477V19.6H97.2177V21.57H92.4277V34H90.3377ZM99.018 21.43V19.4H101.108V21.43H99.018ZM99.018 34V23.2H101.108V34H99.018ZM108.731 34.3C107.624 34.3 106.684 34.0533 105.911 33.56C105.138 33.0667 104.544 32.39 104.131 31.53C103.724 30.67 103.518 29.6933 103.511 28.6C103.518 27.4867 103.731 26.5033 104.151 25.65C104.571 24.79 105.171 24.1167 105.951 23.63C106.731 23.1433 107.668 22.9 108.761 22.9C109.941 22.9 110.948 23.1933 111.781 23.78C112.621 24.3667 113.174 25.17 113.441 26.19L111.361 26.79C111.154 26.1833 110.814 25.7133 110.341 25.38C109.874 25.04 109.338 24.87 108.731 24.87C108.044 24.87 107.481 25.0333 107.041 25.36C106.601 25.68 106.274 26.12 106.061 26.68C105.848 27.24 105.738 27.88 105.731 28.6C105.738 29.7133 105.991 30.6133 106.491 31.3C106.998 31.9867 107.744 32.33 108.731 32.33C109.404 32.33 109.948 32.1767 110.361 31.87C110.781 31.5567 111.101 31.11 111.321 30.53L113.441 31.03C113.088 32.0833 112.504 32.8933 111.691 33.46C110.878 34.02 109.891 34.3 108.731 34.3ZM115.468 34L115.478 19.6H117.598V28.4L121.838 23.2H124.498L120.018 28.6L124.958 34H122.118L117.598 28.8V34H115.468ZM130.561 34.3C129.488 34.3 128.544 34.0667 127.731 33.6C126.924 33.1267 126.294 32.47 125.841 31.63C125.394 30.7833 125.171 29.8033 125.171 28.69C125.171 27.51 125.391 26.4867 125.831 25.62C126.278 24.7533 126.898 24.0833 127.691 23.61C128.484 23.1367 129.408 22.9 130.461 22.9C131.561 22.9 132.498 23.1567 133.271 23.67C134.044 24.1767 134.621 24.9 135.001 25.84C135.388 26.78 135.541 27.8967 135.461 29.19H133.371V28.43C133.358 27.1767 133.118 26.25 132.651 25.65C132.191 25.05 131.488 24.75 130.541 24.75C129.494 24.75 128.708 25.08 128.181 25.74C127.654 26.4 127.391 27.3533 127.391 28.6C127.391 29.7867 127.654 30.7067 128.181 31.36C128.708 32.0067 129.468 32.33 130.461 32.33C131.114 32.33 131.678 32.1833 132.151 31.89C132.631 31.59 133.004 31.1633 133.271 30.61L135.321 31.26C134.901 32.2267 134.264 32.9767 133.411 33.51C132.558 34.0367 131.608 34.3 130.561 34.3ZM126.711 29.19V27.56H134.421V29.19H126.711ZM143.885 34C143.205 34.1333 142.538 34.19 141.885 34.17C141.231 34.15 140.648 34.0233 140.135 33.79C139.621 33.5567 139.235 33.19 138.975 32.69C138.741 32.2433 138.615 31.79 138.595 31.33C138.581 30.8633 138.575 30.3367 138.575 29.75V20.2H140.675V29.65C140.675 30.0833 140.678 30.46 140.685 30.78C140.698 31.1 140.768 31.37 140.895 31.59C141.135 32.0033 141.515 32.24 142.035 32.3C142.561 32.3533 143.178 32.33 143.885 32.23V34ZM136.505 24.88V23.2H143.885V24.88H136.505Z" fill="white"/>
<rect x="0.5" y="0.5" width="191" height="52" rx="9.5" stroke="white" stroke-opacity="0.59"/>
<defs>
<linearGradient id="paint0_linear_602_7" x1="-39" y1="-30.577" x2="241.409" y2="42.7276" gradientUnits="userSpaceOnUse">
<stop offset="0.167091" stop-color="#3F2D6F"/>
<stop offset="0.373768" stop-color="#A23283"/>
<stop offset="0.618718" stop-color="#D3348D"/>
<stop offset="0.82574" stop-color="#EC5C2B"/>
<stop offset="1" stop-color="#EC9314"/>
</linearGradient>
</defs>
</svg>
