<svg width="50" height="50" viewBox="0 0 50 50" fill="none" xmlns="http://www.w3.org/2000/svg">
<circle cx="25" cy="25" r="25" fill="url(#paint0_linear_152_196)"/>
<path d="M29.5999 18.82C28.9163 18.0396 28.5396 17.0374 28.5399 16H25.4499V28.4C25.4261 29.071 25.1428 29.7066 24.6597 30.1729C24.1766 30.6393 23.5314 30.8999 22.8599 30.9C21.4399 30.9 20.2599 29.74 20.2599 28.3C20.2599 26.58 21.9199 25.29 23.6299 25.82V22.66C20.1799 22.2 17.1599 24.88 17.1599 28.3C17.1599 31.63 19.9199 34 22.8499 34C25.9899 34 28.5399 31.45 28.5399 28.3V22.01C29.7929 22.9099 31.2973 23.3926 32.8399 23.39V20.3C32.8399 20.3 30.9599 20.39 29.5999 18.82Z" fill="#F8F8F8"/>
<defs>
<linearGradient id="paint0_linear_152_196" x1="25" y1="0" x2="25" y2="50" gradientUnits="userSpaceOnUse">
<stop stop-color="#6C3077"/>
<stop offset="0.385417" stop-color="#D3348D"/>
<stop offset="1" stop-color="#EA7F20"/>
</linearGradient>
</defs>
</svg>
